<svg width="182.4" height="84.001" viewBox="0 0 182.4 84.001" xmlns="http://www.w3.org/2000/svg"><g id="svgGroup" stroke-linecap="round" fill-rule="evenodd" font-size="9pt" stroke="#000" stroke-width="0.25mm" fill="#000" style="stroke:#000;stroke-width:0.25mm;fill:#000"><path d="M 146.4 84.001 L 146.4 0.001 L 182.4 0.001 L 182.4 12.001 L 159.6 12.001 L 159.6 34.201 L 177.72 34.201 L 177.72 46.201 L 159.6 46.201 L 159.6 72.001 L 182.4 72.001 L 182.4 84.001 L 146.4 84.001 Z M 0 84.001 L 13.68 0.001 L 31.56 0.001 L 45.24 84.001 L 32.04 84.001 L 29.64 67.321 L 29.64 67.561 L 14.64 67.561 L 12.24 84.001 L 0 84.001 Z M 97.68 84.001 L 97.68 0.001 L 117.84 0.001 Q 127.68 0.001 132.6 5.281 A 16.84 16.84 0 0 1 136.251 11.67 Q 137.52 15.581 137.52 20.761 L 137.52 63.241 A 33.785 33.785 0 0 1 137.04 69.135 Q 135.983 75.091 132.6 78.721 Q 128.307 83.328 120.268 83.915 A 33.346 33.346 0 0 1 117.84 84.001 L 97.68 84.001 Z M 51.6 84.001 L 51.6 0.001 L 64.8 0.001 L 64.8 84.001 L 51.6 84.001 Z M 74.64 84.001 L 74.64 0.001 L 87.84 0.001 L 87.84 84.001 L 74.64 84.001 Z M 110.88 72.001 L 117.6 72.001 A 8.746 8.746 0 0 0 119.608 71.784 Q 121.165 71.417 122.237 70.427 A 5.485 5.485 0 0 0 122.58 70.081 A 5.66 5.66 0 0 0 123.657 68.259 Q 124.32 66.507 124.32 63.841 L 124.32 20.161 Q 124.32 15.841 122.58 13.921 A 5.637 5.637 0 0 0 119.65 12.228 Q 118.714 12.001 117.6 12.001 L 110.88 12.001 L 110.88 72.001 Z M 16.2 56.161 L 28.08 56.161 L 22.2 14.641 L 21.96 14.641 L 16.2 56.161 Z" vector-effect="non-scaling-stroke"/></g></svg>